<?xml version="1.0" encoding="UTF-8"?>
<svg version="1.1" xmlns="http://www.w3.org/2000/svg" width="5000" height="1000">
<path d="M0 0 C1650 0 3300 0 5000 0 C5000 330 5000 660 5000 1000 C3350 1000 1700 1000 0 1000 C0 670 0 340 0 0 Z " fill="#FCFCFD" transform="translate(0,0)"/>
<path d="M0 0 C0.87853134 -0.00979385 1.75706268 -0.01958771 2.66221619 -0.02967834 C21.3265729 -0.19494976 39.43851604 -0.32501646 57.65625 4.23828125 C58.49446289 4.43663574 59.33267578 4.63499023 60.19628906 4.83935547 C97.96134533 14.00004164 128.59007142 37.61934711 148.71484375 70.61328125 C150.76088989 74.123068 152.73272925 77.6604372 154.65625 81.23828125 C154.9847998 81.84478516 155.31334961 82.45128906 155.65185547 83.07617188 C165.56391916 101.55547071 171.78021406 120.90536002 176.65625 141.23828125 C177.05138901 142.84131714 177.44718224 144.44419196 177.84375 146.046875 C179.80495833 154.09723458 181.28839997 162.03118107 182.65625 170.23828125 C193.54625 169.90828125 204.43625 169.57828125 215.65625 169.23828125 C217.03795277 163.02448727 217.03795277 163.02448727 218.41015625 156.80859375 C227.73552006 117.07443491 244.86915174 77.71855327 273.65625 48.23828125 C274.57713199 47.24628489 275.49638375 46.25277286 276.4140625 45.2578125 C303.97404258 15.88711464 345.09916666 1.64959996 384.65625 0.23828125 C390.55151226 0.09504714 396.44693675 0.05815108 402.34375 0.05078125 C403.07299683 0.04960297 403.80224365 0.04842468 404.55358887 0.04721069 C448.9414425 0.05534767 488.13957542 14.91374204 520.65625 45.23828125 C521.40777344 45.93566406 522.15929687 46.63304687 522.93359375 47.3515625 C549.22279926 72.62431367 565.48834387 109.41586509 574.65625 144.23828125 C574.924375 145.24697266 575.1925 146.25566406 575.46875 147.29492188 C587.60938772 193.55400355 590.83845259 240.47387649 590.77231562 288.15213096 C590.76793549 292.12521402 590.76946282 296.09829581 590.7702179 300.07138062 C590.77073841 306.93002021 590.76764146 313.78865019 590.76198006 320.64728737 C590.75380035 330.56332616 590.75124326 340.47936036 590.74999207 350.39540216 C590.74781164 366.48943414 590.74117909 382.58346102 590.73168945 398.67749023 C590.72248911 414.29728165 590.71543263 429.91707166 590.71118164 445.53686523 C590.71091364 446.51192577 590.71064565 447.48698631 590.71036953 448.49159414 C590.70828971 456.11892491 590.70633292 463.74625572 590.70441496 471.37358654 C590.69500711 508.6618228 590.67488273 545.95004625 590.65625 583.23828125 C530.92625 583.23828125 471.19625 583.23828125 409.65625 583.23828125 C409.59566406 562.37480469 409.53507813 541.51132812 409.47265625 520.015625 C409.43213734 506.75846178 409.39139415 493.50129982 409.34960938 480.24414062 C409.3276491 473.27303081 409.30574515 466.30192083 409.28393555 459.33081055 C409.28120036 458.45729987 409.27846517 457.5837892 409.2756471 456.68380851 C409.23178223 442.64895512 409.19108703 428.61409428 409.15159739 414.57922798 C409.11088795 400.13637855 409.06669158 385.6935427 409.01937145 371.25071341 C408.9903651 362.36502541 408.96396112 353.479338 408.94107103 344.59363211 C408.92503362 338.47004488 408.90555798 332.34647409 408.88358159 326.22290533 C408.87106704 322.70927886 408.85987191 319.19566416 408.85283089 315.68202209 C408.82095671 301.28604561 408.65405847 286.90379424 408.20201111 272.51515198 C408.16303666 271.24575018 408.12406221 269.97634838 408.08390671 268.66847986 C407.76035536 259.1796058 407.05745277 249.78559107 405.90478516 240.36279297 C405.6663082 238.32426011 405.47292722 236.28661707 405.29296875 234.2421875 C403.16114382 212.85933744 397.09123402 189.44847874 380.72265625 174.46875 C378.76465068 172.91258863 376.78205695 171.55501242 374.65625 170.23828125 C373.9653125 169.8103125 373.274375 169.38234375 372.5625 168.94140625 C347.77593721 155.18995703 314.0822739 156.31263539 287.65625 163.86328125 C273.83137258 168.07813503 262.39173468 174.44954798 251.65625 184.23828125 C250.88925781 184.91246094 250.12226562 185.58664062 249.33203125 186.28125 C232.08699895 202.3224406 222.82522092 226.01964951 216.65625 248.23828125 C216.4072998 249.10469238 216.15834961 249.97110352 215.90185547 250.86376953 C214.12637563 257.15178851 212.74672378 263.4226348 211.65625 269.86328125 C211.48818848 270.85271729 211.32012695 271.84215332 211.14697266 272.86157227 C204.61094643 312.36015049 204.33312918 351.82936305 204.25153303 391.75358582 C204.23730822 397.81868188 204.21420933 403.88373807 204.19126268 409.94880629 C204.14620193 421.93265008 204.10942273 433.91650354 204.078125 445.90039062 C204.04776996 457.5162932 204.01332298 469.1321723 203.97363281 480.74804688 C203.9711513 481.4757417 203.9686698 482.20343652 203.96611309 482.9531827 C203.94448052 489.28670861 203.9225457 495.62023347 203.90058136 501.95375824 C203.80700687 529.04857242 203.73322409 556.14340303 203.65625 583.23828125 C143.59625 583.23828125 83.53625 583.23828125 21.65625 583.23828125 C21.59566406 560.57527344 21.53507812 537.91226563 21.47265625 514.5625 C21.43215992 500.20247225 21.39143028 485.84244574 21.34960938 471.48242188 C21.32764586 463.93660503 21.30574134 456.39078801 21.28393555 448.8449707 C21.28120036 447.89931954 21.27846517 446.95366838 21.2756471 445.97936112 C21.23166515 430.74353728 21.19100943 415.50770631 21.15159739 400.27187004 C21.11102862 384.61770565 21.06685029 368.96355441 21.01937145 353.30940944 C20.9902235 343.66209156 20.96383895 334.01477445 20.94107103 324.36743937 C20.92515463 317.73794283 20.90570941 311.10846229 20.88358159 304.4789836 C20.87094614 300.66305372 20.8597777 296.84713571 20.85283089 293.03119087 C20.8191295 262.92037567 20.8191295 262.92037567 17.84375 232.98828125 C17.66706787 231.78880859 17.49038574 230.58933594 17.30834961 229.35351562 C14.10047295 208.37926576 8.13053782 185.95326382 -9.34375 172.23828125 C-18.09320407 166.83672342 -27.33836135 163.53478914 -37.34375 161.23828125 C-38.28605469 161.01269531 -39.22835938 160.78710938 -40.19921875 160.5546875 C-68.09397306 155.09619981 -100.21868582 159.6471664 -124.20703125 175.0703125 C-151.28949626 193.7885791 -163.93993199 222.12343444 -172.09375 253.05078125 C-172.39998291 254.20811768 -172.70621582 255.3654541 -173.02172852 256.55786133 C-174.43577767 262.0706267 -175.61388081 267.40604831 -176.10839844 273.07617188 C-176.36870729 275.4675569 -176.81936454 277.77085425 -177.3125 280.125 C-184.82895458 316.28053848 -183.67401707 353.94901508 -183.74846697 390.65133309 C-183.76173878 396.7492725 -183.78577266 402.84717423 -183.80873732 408.94508328 C-183.85384415 420.997144 -183.89060516 433.04921437 -183.921875 445.10131836 C-183.95221057 456.78623135 -183.98664934 468.47112085 -184.02636719 480.15600586 C-184.0288487 480.88752218 -184.0313302 481.61903849 -184.03388691 482.37272197 C-184.05551828 488.7390963 -184.0774536 495.10546958 -184.09941864 501.47184277 C-184.19306296 528.72729548 -184.26679706 555.98276445 -184.34375 583.23828125 C-244.07375 583.23828125 -303.80375 583.23828125 -365.34375 583.23828125 C-365.34375 394.47828125 -365.34375 205.71828125 -365.34375 11.23828125 C-305.61375 11.23828125 -245.88375 11.23828125 -184.34375 11.23828125 C-184.34375 77.84368582 -184.34375 77.84368582 -196.06982422 107.26904297 C-198.79606862 114.280563 -201.15198471 121.4114603 -203.50390625 128.5546875 C-203.82913615 129.54178333 -203.82913615 129.54178333 -204.16093636 130.5488205 C-205.03385344 133.20048004 -205.90540527 135.85258087 -206.77464771 138.50544739 C-209.04725051 145.44048586 -211.36230007 152.3610604 -213.6796875 159.28125 C-215.49339844 164.70498047 -215.49339844 164.70498047 -217.34375 170.23828125 C-202.49375 170.23828125 -187.64375 170.23828125 -172.34375 170.23828125 C-172.01375 167.26828125 -171.68375 164.29828125 -171.34375 161.23828125 C-163.98339221 122.61707803 -146.39154794 83.77597833 -120.34375 54.23828125 C-119.66957031 53.44421875 -118.99539063 52.65015625 -118.30078125 51.83203125 C-113.9914882 46.83091746 -109.46682673 42.3975249 -104.34375 38.23828125 C-102.92449219 37.08005859 -102.92449219 37.08005859 -101.4765625 35.8984375 C-72.81847232 12.95497351 -36.76510039 0.33847885 0 0 Z " fill="#8B61C2" transform="translate(475.34375,199.76171875)"/>
<path d="M0 0 C1.71108696 -0.0049926 1.71108696 -0.0049926 3.45674133 -0.01008606 C5.85925906 -0.01511343 8.26178366 -0.01749569 10.66430664 -0.01733398 C14.24703249 -0.01949877 17.82943864 -0.0376403 21.41210938 -0.05664062 C42.04444846 -0.10831136 62.72629732 0.61069974 83.05078125 4.41796875 C84.24050537 4.63267822 85.43022949 4.8473877 86.65600586 5.06860352 C106.26429554 8.68021419 125.67269314 12.89872385 144.61328125 19.16796875 C145.53157715 19.46477539 146.44987305 19.76158203 147.39599609 20.06738281 C178.88742343 30.3483611 208.62579508 45.53203979 234.61328125 66.16796875 C235.40863281 66.77253906 236.20398437 67.37710938 237.0234375 68 C245.03236507 74.18575707 252.30197624 81.18761926 259.61328125 88.16796875 C260.4125 88.92464844 261.21171875 89.68132812 262.03515625 90.4609375 C267.37545988 95.64103202 272.00384913 101.33703712 276.61328125 107.16796875 C277.804375 108.65103516 277.804375 108.65103516 279.01953125 110.1640625 C293.73338988 128.81248142 305.12628859 149.38817153 314.55078125 171.16796875 C314.89189941 171.95461914 315.23301758 172.74126953 315.58447266 173.55175781 C320.797749 185.9662724 324.51711152 198.80766522 327.73828125 211.85546875 C327.99741302 212.89787216 327.99741302 212.89787216 328.26177979 213.96133423 C331.06750169 225.3041148 333.25647954 236.56131562 334.61328125 248.16796875 C334.70347534 248.92201996 334.79366943 249.67607117 334.88659668 250.45297241 C336.52564894 264.50013305 336.9256773 278.42478086 336.87402344 292.56005859 C336.86331383 296.03240497 336.87398344 299.50423176 336.88671875 302.9765625 C336.90025128 322.44625594 335.79399156 341.67891039 332.30078125 360.85546875 C332.08131836 362.08040039 331.86185547 363.30533203 331.63574219 364.56738281 C324.78059246 401.94216908 310.99894231 440.13330228 288.61328125 471.16796875 C287.96875 472.08449219 287.32421875 473.00101563 286.66015625 473.9453125 C273.05983927 493.03394637 256.97812409 510.59817291 238.61328125 525.16796875 C237.824375 525.82410156 237.03546875 526.48023438 236.22265625 527.15625 C214.94059123 544.73861829 189.93746525 557.51421461 164.61328125 568.16796875 C163.4015625 568.68230469 162.18984375 569.19664062 160.94140625 569.7265625 C141.97492779 577.56142753 121.67410778 583.86960186 101.31640625 586.7109375 C98.42830085 587.15947518 98.42830085 587.15947518 94.91796875 588.125 C90.15362394 589.34346107 85.35867119 590.02095344 80.48828125 590.66796875 C79.24498047 590.84392578 79.24498047 590.84392578 77.9765625 591.0234375 C74.85915635 591.44544445 71.73915302 591.81351872 68.61328125 592.16796875 C67.88004639 592.25201965 67.14681152 592.33607056 66.39135742 592.42266846 C50.38126925 594.20759322 34.46286428 594.56525164 18.36328125 594.54296875 C16.44387222 594.54364853 16.44387222 594.54364853 14.48568726 594.54434204 C-2.44111169 594.52684413 -19.22701402 594.03784009 -36.07421875 592.35546875 C-37.32471008 592.23144684 -37.32471008 592.23144684 -38.60046387 592.10491943 C-48.14904434 591.12743238 -57.54262418 589.70226432 -66.95678711 587.83276367 C-70.05239581 587.23276776 -73.14059767 586.73696805 -76.26171875 586.29296875 C-102.34959104 581.90467765 -129.77395016 571.98421636 -153.38671875 560.16796875 C-154.22525391 559.75611328 -155.06378906 559.34425781 -155.92773438 558.91992188 C-173.84098421 550.07633528 -190.70988288 539.56629108 -206.38671875 527.16796875 C-207.74603516 526.11416016 -207.74603516 526.11416016 -209.1328125 525.0390625 C-214.88515632 520.47798421 -220.13983585 515.5951705 -225.24023438 510.32885742 C-228.1309485 507.35315153 -231.13636869 504.73889781 -234.38671875 502.16796875 C-236.88425359 499.64545856 -239.11140077 496.89108868 -241.38671875 494.16796875 C-241.85142578 493.62092285 -242.31613281 493.07387695 -242.79492188 492.51025391 C-251.2175272 482.57296387 -258.61525751 472.2931023 -265.38671875 461.16796875 C-266.07121094 460.05421875 -266.75570312 458.94046875 -267.4609375 457.79296875 C-276.26059266 442.9424351 -283.81460516 427.17884127 -289.16796875 410.76171875 C-290.30925474 407.19605151 -290.30925474 407.19605151 -291.828125 404.015625 C-294.19766082 398.60884391 -295.41884699 392.81974514 -296.82421875 387.10546875 C-297.13061279 385.86700195 -297.43700684 384.62853516 -297.75268555 383.35253906 C-300.42436528 372.36056605 -302.63142911 361.34115147 -304.38671875 350.16796875 C-304.49854492 349.47944824 -304.61037109 348.79092773 -304.72558594 348.08154297 C-311.02331017 308.43766692 -308.84866993 265.43377013 -301.38671875 226.16796875 C-301.21833496 225.27174805 -301.04995117 224.37552734 -300.87646484 223.45214844 C-292.33960357 179.27000351 -272.80998309 137.28585411 -243.38671875 103.16796875 C-242.76410156 102.43449219 -242.14148437 101.70101562 -241.5 100.9453125 C-228.52342899 86.08216732 -214.46387231 72.61130094 -198.38671875 61.16796875 C-196.98873047 60.14509766 -196.98873047 60.14509766 -195.5625 59.1015625 C-189.62206599 54.82559792 -183.42730012 50.95844717 -177.140625 47.21386719 C-175.98401536 46.52415175 -174.83028212 45.82958652 -173.6796875 45.12988281 C-142.73755643 26.39347952 -108.40584375 16.01360415 -73.38671875 8.16796875 C-72.40977051 7.94238281 -71.43282227 7.71679688 -70.42626953 7.484375 C-55.58879117 4.07128094 -40.53977358 2.49050015 -25.38671875 1.16796875 C-24.4374501 1.08390274 -23.48818146 0.99983673 -22.51014709 0.91322327 C-14.99376791 0.28502432 -7.54093838 0.00795879 0 0 Z " fill="#8B61C2" transform="translate(3373.38671875,199.83203125)"/>
<path d="M0 0 C1.02199493 0.15625854 1.02199493 0.15625854 2.06463623 0.31567383 C56.18851608 8.59250261 109.41840432 25.13495004 152 61 C152.52803223 61.43924805 153.05606445 61.87849609 153.60009766 62.33105469 C165.5307031 72.26705933 176.48208526 82.66375179 186 95 C186.42780762 95.55139648 186.85561523 96.10279297 187.29638672 96.67089844 C213.71642321 130.93988347 228.63025744 171.65689346 234.75 214.25 C234.92390259 215.45269531 234.92390259 215.45269531 235.10131836 216.6796875 C237.07697158 231.84692625 237.14879753 247.22633296 237.11352539 262.49682617 C237.11324229 264.25330097 237.11340364 266.00977588 237.1139679 267.76625061 C237.11425109 272.4674656 237.10843267 277.16865431 237.10139394 281.86986327 C237.09507984 286.80787883 237.0945503 291.74589521 237.09336853 296.68391418 C237.09027871 306.00476974 237.08209746 315.32561336 237.07201904 324.64646369 C237.05867758 337.26292247 237.05333899 349.87938459 237.04751682 362.49584866 C237.03815561 382.33057469 237.01822114 402.16527554 237 422 C264.39 422 291.78 422 320 422 C320 474.14 320 526.28 320 580 C297.003125 580.103125 274.00625 580.20625 250.3125 580.3125 C243.09028564 580.35802002 235.86807129 580.40354004 228.42700195 580.45043945 C219.50817871 580.47302246 219.50817871 580.47302246 215.31364441 580.47721863 C212.4260326 580.48181834 209.53889512 580.50031475 206.65141296 580.52787781 C180.24220315 580.76862606 154.71010593 579.5026334 134 561 C133.31421875 560.39542969 132.6284375 559.79085937 131.921875 559.16796875 C117.91806493 546.04607802 111.48480001 527.59743707 109 509 C108.8664209 508.07799805 108.7328418 507.15599609 108.59521484 506.20605469 C105.9894933 485.47888275 113.66808922 469.01436584 121.95947266 450.5859375 C124.50533199 444.90862157 126.86481574 439.15855737 129.21557617 433.3984375 C131.454559 427.92304038 133.73078074 422.46293526 136 417 C114.22 416.505 114.22 416.505 92 416 C91.67 418.97 91.34 421.94 91 425 C90.2181578 427.95152194 89.39501356 430.79715818 88.4375 433.6875 C88.17501465 434.49566162 87.9125293 435.30382324 87.64208984 436.13647461 C69.6251914 490.93482416 41.15655191 538.22143905 -11.9921875 565.12109375 C-19.08728806 568.54525097 -26.47476754 571.32213608 -33.82495117 574.14233398 C-35.74273009 574.89855324 -37.63382345 575.72171114 -39.51953125 576.5546875 C-53.51628456 582.36703175 -68.68942881 584.83812874 -83.5625 587.3125 C-84.32968353 587.44137604 -85.09686707 587.57025208 -85.88729858 587.70303345 C-100.113694 590.07197613 -114.06389898 591.15459313 -128.49609375 591.203125 C-129.1627965 591.20595238 -129.82949924 591.20877975 -130.51640511 591.21169281 C-134.0495961 591.22654746 -137.58274777 591.23586143 -141.1159668 591.24023438 C-143.98100643 591.24460144 -146.84574195 591.25844393 -149.71069336 591.28125 C-166.68098485 591.41356421 -183.24257742 591.03949318 -200 588 C-200.88573196 587.84090149 -201.77146393 587.68180298 -202.68403625 587.5178833 C-234.15852022 581.79696299 -265.01557756 572.29013055 -291 553 C-292.38638672 551.97712891 -292.38638672 551.97712891 -293.80078125 550.93359375 C-307.0776753 540.56778165 -319.06430178 528.30340437 -328 514 C-328.37672852 513.40316406 -328.75345703 512.80632813 -329.14160156 512.19140625 C-334.20421781 504.03951694 -338.21562898 495.55215949 -341.875 486.6875 C-342.24439697 485.79289062 -342.61379395 484.89828125 -342.99438477 483.9765625 C-346.69895628 474.70958922 -349.1612405 465.36374298 -350.625 455.5 C-350.80675781 454.35337891 -350.80675781 454.35337891 -350.9921875 453.18359375 C-357.1731694 412.9400268 -353.00827379 369.17597925 -329.8046875 334.7421875 C-324.9453046 328.12191323 -319.63292684 321.96951649 -314 316 C-313.33871094 315.27425781 -312.67742187 314.54851562 -311.99609375 313.80078125 C-261.15276386 260.06314415 -172.00337395 248.94919257 -102.76263428 240.14691162 C-89.44440735 238.43707994 -76.16787394 236.42890463 -62.88793945 234.44702148 C-51.99933861 232.82972812 -41.10465391 231.34203383 -30.17533875 230.02436829 C-24.40608213 229.32465744 -18.67005337 228.51728378 -12.9375 227.5625 C-3.80779929 226.06674346 5.35851995 224.89756774 14.53646851 223.74404907 C23.39838628 222.62890604 32.23604688 221.4417613 41.02929688 219.86328125 C46.09552425 218.99366845 50.87906404 218.89978599 56 219 C53.89835776 199.00674558 48.4636619 181.70512433 33 168 C24.25424873 160.97610132 14.46562281 156.80454703 4 153 C2.8229248 152.50016602 2.8229248 152.50016602 1.62207031 151.99023438 C-1.0146895 150.99445246 -3.45566329 150.43866514 -6.23046875 149.96484375 C-7.19791016 149.79533203 -8.16535156 149.62582031 -9.16210938 149.45117188 C-10.16048828 149.28166016 -11.15886719 149.11214844 -12.1875 148.9375 C-14.18146481 148.59520483 -16.17498113 148.2502834 -18.16796875 147.90234375 C-19.04735107 147.75273193 -19.9267334 147.60312012 -20.83276367 147.44897461 C-23 147 -23 147 -25 146 C-35.10850859 144.36771488 -45.60334147 144.7588388 -55.8125 144.75 C-56.7239679 144.74866058 -57.63543579 144.74732117 -58.57452393 144.74594116 C-76.03867115 144.75150972 -93.28009502 145.46822816 -110 151 C-111.74603516 151.52207031 -111.74603516 151.52207031 -113.52734375 152.0546875 C-126.03467449 155.87793105 -136.96881523 161.51925906 -147 170 C-148.4540625 171.13888672 -148.4540625 171.13888672 -149.9375 172.30078125 C-153.1957569 175.02462048 -155.63039064 178.09810497 -158.0625 181.5625 C-158.4944165 182.17673828 -158.92633301 182.79097656 -159.37133789 183.42382812 C-168.51444013 196.80953701 -170.6721019 211.06522277 -172 227 C-228.1 227 -284.2 227 -342 227 C-342 195.67199197 -337.11180611 165.62606626 -324 137 C-323.67918457 136.29488281 -323.35836914 135.58976563 -323.02783203 134.86328125 C-310.39770658 107.5119075 -291.37920504 82.05190733 -267.7890625 63.23828125 C-266.00801742 61.80895515 -264.24980181 60.35038043 -262.5234375 58.85546875 C-194.58617564 0.48831654 -85.72797543 -13.39683235 0 0 Z " fill="#8B61C2" transform="translate(4627,203)"/>
<path d="M0 0 C3.48121683 0.01069722 6.96191415 0.00005006 10.44311523 -0.01269531 C30.25923631 -0.02644362 49.75737777 1.28032309 69.30834961 4.57324219 C70.28982971 4.73722 70.28982971 4.73722 71.2911377 4.9045105 C101.44164763 9.9648343 131.18544685 18.77651383 158.70043945 32.28759766 C160.57699618 33.20854756 162.46498623 34.09932713 164.35913086 34.98339844 C178.2426844 41.63429668 191.5152082 49.83582106 203.68334961 59.26074219 C204.47354492 59.87046875 205.26374023 60.48019531 206.07788086 61.10839844 C220.40651274 72.38149008 234.13389302 84.21133762 245.51147461 98.53417969 C246.92914018 100.31391093 248.37619958 102.07072866 249.85522461 103.79980469 C260.5446889 116.34665817 269.01298013 130.71147249 276.68334961 145.26074219 C277.22789795 146.28264648 277.22789795 146.28264648 277.78344727 147.32519531 C308.36139648 205.54064693 306.68334961 270.97429854 306.68334961 335.26074219 C163.46334961 335.26074219 20.24334961 335.26074219 -127.31665039 335.26074219 C-124.34695228 366.44257239 -118.1380327 392.57877461 -93.61645508 413.72705078 C-84.61182098 421.08570311 -74.89263236 426.51480039 -64.31665039 431.26074219 C-63.17325195 431.793125 -62.02985352 432.32550781 -60.85180664 432.87402344 C-24.06476435 448.8881802 23.46945 450.78933667 62.68334961 443.26074219 C63.56442383 443.09445312 64.44549805 442.92816406 65.35327148 442.75683594 C91.59997982 437.61042254 117.76797686 427.26370531 134.02319336 405.06542969 C138.20390743 398.60361836 141.21498479 391.99482012 143.77319336 384.74511719 C144.68334961 382.26074219 144.68334961 382.26074219 145.68334961 381.26074219 C148.02362085 381.16311995 150.33433342 381.13076615 152.67506409 381.14048767 C153.41504149 381.13963325 154.15501889 381.13877882 154.91741985 381.1378985 C157.41567374 381.1362415 159.91386159 381.14176865 162.41210938 381.1472168 C164.19548542 381.14749865 165.97886157 381.14734098 167.76223755 381.14677429 C172.61947152 381.14648623 177.47668102 381.15238431 182.33390927 381.15934825 C187.40415909 381.1655804 192.47440942 381.16618548 197.54466248 381.16737366 C207.15298654 381.17048738 216.76129929 381.17870133 226.36961836 381.18872315 C237.30534489 381.199883 248.24107195 381.20539441 259.17680275 381.21041858 C281.67899132 381.22088391 304.18116983 381.23848415 326.68334961 381.26074219 C326.53291678 382.68582257 326.38020969 384.11066298 326.2265625 385.53540039 C326.14177139 386.32888382 326.05698029 387.12236725 325.96961975 387.93989563 C323.5536396 407.52670685 315.02688236 427.06475982 305.68334961 444.26074219 C305.16369629 445.23769043 305.16369629 445.23769043 304.63354492 446.234375 C289.9014717 473.87891497 269.53253898 498.94781193 245.68334961 519.26074219 C244.83256836 520.00066406 243.98178711 520.74058594 243.10522461 521.50292969 C199.88951574 558.46062607 145.66314018 580.12435639 90.12084961 590.01074219 C89.03682861 590.20917725 87.95280762 590.4076123 86.8359375 590.61206055 C67.01713536 593.99357041 47.05482464 594.57118774 26.99072266 594.46655273 C23.35629276 594.44816855 19.72211839 594.44604506 16.08764648 594.44628906 C-2.37355617 594.42051128 -20.54589209 593.97138339 -38.82470703 591.26879883 C-41.01377467 590.94682663 -43.20486263 590.64308785 -45.39672852 590.34082031 C-55.23275738 588.94369838 -64.71690325 586.79311779 -74.31665039 584.26074219 C-76.01288867 583.85265992 -77.71056124 583.45043049 -79.41040039 583.05761719 C-114.38879072 574.82467159 -149.12380218 560.4370853 -178.31665039 539.26074219 C-179.36723633 538.50148438 -180.41782227 537.74222656 -181.50024414 536.95996094 C-244.1484367 490.75193101 -281.93898515 422.74243563 -293.80981445 346.07568359 C-295.7962787 332.28413001 -297.45273744 318.50419295 -297.51977539 304.55761719 C-297.52688034 303.56965652 -297.53398529 302.58169586 -297.54130554 301.563797 C-297.9951515 219.73012333 -278.68941833 142.66199415 -219.97802734 82.6875 C-213.09208121 75.75392903 -206.12329378 69.15864612 -198.31665039 63.26074219 C-197.68162598 62.76574219 -197.04660156 62.27074219 -196.39233398 61.76074219 C-165.29247729 37.53784577 -130.19570261 21.49406885 -92.31665039 11.26074219 C-91.43638184 11.02081543 -90.55611328 10.78088867 -89.64916992 10.53369141 C-74.41988828 6.44978015 -58.95872001 4.13217028 -43.31665039 2.26074219 C-42.61402069 2.17213928 -41.91139099 2.08353638 -41.18746948 1.99224854 C-27.45030954 0.28513308 -13.83435953 -0.05037369 0 0 Z " fill="#8B61C2" transform="translate(1420.316650390625,199.7392578125)"/>
<path d="M0 0 C0.79132324 0.10183594 1.58264648 0.20367187 2.39794922 0.30859375 C13.56888775 1.75605789 24.24668255 4.15329161 35.02490234 7.41210938 C36.74384889 7.92375626 38.47467273 8.395162 40.20703125 8.859375 C77.02437718 19.08909628 112.60669765 42.82668103 136 73 C136.64066406 73.763125 137.28132813 74.52625 137.94140625 75.3125 C160.64738156 102.46792906 174.1802714 136.07846653 183 170 C183.22139648 170.82999512 183.44279297 171.65999023 183.67089844 172.51513672 C197.15451544 223.44994544 195.44504266 276.95169099 195.3106151 329.20599766 C195.28870641 337.95879802 195.28462309 346.71158426 195.2812262 355.46440812 C195.27472485 371.0626412 195.25493932 386.66082614 195.22631836 402.2590332 C195.19861135 417.3752418 195.17749481 432.49143707 195.16479492 447.60766602 C195.16399093 448.55517209 195.16318694 449.50267817 195.16235858 450.47889656 C195.15611716 457.89341189 195.1502475 465.3079275 195.14449489 472.72244322 C195.11639783 508.81500639 195.05599603 544.90744848 195 581 C134.94 581 74.88 581 13 581 C12.95101562 559.39402344 12.90203125 537.78804687 12.8515625 515.52734375 C12.81616897 501.8235639 12.7802962 488.1197878 12.7421875 474.41601562 C12.72218268 467.21329793 12.70229875 460.01057991 12.68261719 452.80786133 C12.68014575 451.90525025 12.67767431 451.00263917 12.67512798 450.07267624 C12.63552373 435.54428601 12.60273091 421.0158881 12.57250018 406.48747569 C12.54126902 391.55196789 12.50261083 376.6164923 12.45720994 361.6810208 C12.42947646 352.4820696 12.40737871 343.28314166 12.39273749 334.08416016 C12.38210844 327.75644186 12.36419651 321.4287689 12.34083296 315.10108494 C12.32760618 311.46286936 12.31732492 307.82471664 12.31578636 304.18647575 C12.29252107 263.09889749 11.27161064 213.99038041 -19.3046875 182.63671875 C-41.58356855 161.46110498 -71.69500074 157.62061185 -101.07910156 157.68432617 C-104.09998135 157.68747393 -107.11986615 157.66397589 -110.140625 157.63867188 C-146.97069326 157.51768667 -184.20791258 166.01455058 -211.74609375 191.921875 C-214 194 -214 194 -216.5234375 195.96484375 C-243.70298311 218.30008549 -254.01282413 258.34403147 -261 291 C-261.1848999 291.83466797 -261.3697998 292.66933594 -261.56030273 293.52929688 C-263.04133991 300.46941597 -263.82839052 307.44633431 -264.5625 314.5 C-264.68818359 315.63953125 -264.81386719 316.7790625 -264.94335938 317.953125 C-266.80168205 335.46611354 -267.15831475 352.9264163 -267.20532227 370.52392578 C-267.21492473 372.8319719 -267.2249361 375.14001635 -267.23532104 377.44805908 C-267.26211997 383.65752811 -267.28326331 389.86700454 -267.30332303 396.07649851 C-267.32533876 402.58672812 -267.35265047 409.09693556 -267.37937927 415.60714722 C-267.42346323 426.51592044 -267.46433271 437.42470127 -267.50268555 448.33349609 C-267.54216456 459.56006764 -267.58363021 470.78662903 -267.62768555 482.01318359 C-267.63043505 482.71445535 -267.63318456 483.4157271 -267.63601738 484.13824952 C-267.65995831 490.2401306 -267.68404778 496.34201109 -267.70815182 502.44389153 C-267.81139897 528.62924125 -267.9049055 554.81461646 -268 581 C-327.73 581 -387.46 581 -449 581 C-449 392.24 -449 203.48 -449 9 C-389.27 9 -329.54 9 -268 9 C-268 90.99334551 -268 90.99334551 -282.7756958 129.14398193 C-284.78042051 134.39565503 -286.65158949 139.69486133 -288.53710938 144.99023438 C-291.55492507 153.4259729 -294.63987986 161.8321548 -297.84481812 170.19873047 C-299.08652592 173.4593773 -300.15208637 176.60834546 -301 180 C-286.15 180 -271.3 180 -256 180 C-255.67 177.36 -255.34 174.72 -255 172 C-245.20206449 120.20455003 -213.13127266 69.36125774 -171 38 C-170.14664063 37.36320312 -169.29328125 36.72640625 -168.4140625 36.0703125 C-119.93123054 1.11757318 -58.36801636 -8.19555246 0 0 Z " fill="#8B61C2" transform="translate(2264,202)"/>
<path d="M0 0 C0 54.12 0 108.24 0 164 C62.04 164 124.08 164 188 164 C188 216.14 188 268.28 188 322 C125.96 322 63.92 322 0 322 C0 410.11 0 498.22 0 589 C2.97 588.67 5.94 588.34 9 588 C10.88763581 587.86101331 12.77671523 587.7394623 14.66699219 587.64282227 C16.20064926 587.56241196 16.20064926 587.56241196 17.76528931 587.4803772 C19.38967422 587.39921158 19.38967422 587.39921158 21.046875 587.31640625 C22.77555313 587.22678116 22.77555313 587.22678116 24.53915405 587.13534546 C27.00116088 587.00800348 29.46322972 586.8818557 31.925354 586.75680542 C35.79004781 586.56046543 39.65456238 586.36089048 43.51904297 586.16040039 C48.65749934 585.89398474 53.79600643 585.62859167 58.93457031 585.36425781 C67.99852302 584.89755022 77.06207169 584.42370138 86.125 583.9375 C86.86146759 583.8981131 87.59793518 583.8587262 88.35671997 583.81814575 C99.53520399 583.21781261 110.70363919 582.50368327 121.87304688 581.75195312 C135.07339009 580.88736128 148.28563892 580.28637787 161.50073242 579.69726562 C163.21143777 579.62005674 164.92213142 579.54258843 166.6328125 579.46484375 C167.46289322 579.42749115 168.29297394 579.39013855 169.14820862 579.35165405 C173.56752605 579.14432359 177.96079658 578.84776548 182.3671875 578.44140625 C191.89152522 577.80757223 201.45459511 578 211 578 C211 630.14 211 682.28 211 736 C176.55948039 738.29603464 176.55948039 738.29603464 161.47015381 738.73097229 C154.69554596 738.93146628 147.92148565 739.14647289 141.14749765 739.36690462 C139.78525406 739.41119449 138.42300495 739.45531481 137.06075048 739.49926913 C119.87919841 740.0541249 102.70169063 740.7123278 85.52400398 741.37476397 C82.98298508 741.47270983 80.44195656 741.57040217 77.90092468 741.66801071 C66.72337201 742.09741785 55.54590535 742.52903354 44.36846161 742.96126556 C32.16414481 743.43310641 19.95979025 743.90396134 7.75536752 744.37305444 C3.68690092 744.52948519 -0.38154925 744.68631714 -4.4499588 744.84422493 C-20.29586474 745.45921669 -36.14196003 746.05555551 -51.99145508 746.57104492 C-53.8620994 746.63233503 -53.8620994 746.63233503 -55.77053452 746.69486332 C-65.5053363 747.0045574 -75.23695243 747.21702813 -84.97680664 747.24023438 C-86.64416727 747.24685154 -88.31151206 747.26074777 -89.97875977 747.28125 C-115.49670067 747.5934259 -137.8213977 742.17391088 -156.6875 723.9375 C-180.72443945 699.58106202 -181.47430364 666.92276431 -181.34819686 634.71196473 C-181.33509349 630.50435311 -181.33963593 626.2967529 -181.34190369 622.08912659 C-181.3434675 614.82062753 -181.33415244 607.55221001 -181.31719017 600.28373146 C-181.29268253 589.77508401 -181.28498295 579.2664755 -181.2812262 568.75780257 C-181.27468004 551.70317748 -181.25476903 534.64859573 -181.22631836 517.59399414 C-181.19873004 501.03898331 -181.1775199 484.4839843 -181.16479492 467.92895508 C-181.16361267 466.39515298 -181.16361267 466.39515298 -181.16240653 464.83036498 C-181.15849107 459.6999866 -181.15470003 454.56960813 -181.15097082 449.43922961 C-181.11993215 406.95944789 -181.06466018 364.47974645 -181 322 C-225.88 322 -270.76 322 -317 322 C-317 269.86 -317 217.72 -317 164 C-272.12 164 -227.24 164 -181 164 C-181 128.36 -181 92.72 -181 56 C-173.13384059 52.62878882 -173.13384059 52.62878882 -169.71484375 51.640625 C-168.94793213 51.41552246 -168.18102051 51.19041992 -167.39086914 50.95849609 C-166.58125732 50.72469238 -165.77164551 50.49088867 -164.9375 50.25 C-156.57171124 47.78905924 -148.25327751 45.20294349 -139.95092773 42.53613281 C-135.31144198 41.04762196 -130.66577942 39.58374281 -126.00756836 38.15478516 C-119.16781135 36.05318603 -112.33333473 33.93487458 -105.5 31.8125 C-103.60738233 31.2249363 -101.7147646 30.63737279 -99.82214355 30.04981995 C-96.54805312 29.03335044 -93.27402825 28.0166698 -90 27 C-86.08401882 25.78398733 -82.16802487 24.5680159 -78.25195312 23.35229492 C-75.82872921 22.60000436 -73.40554899 21.847573 -70.98242188 21.0949707 C-60.59561506 17.87042095 -50.20392527 14.66290649 -39.79394531 11.51391602 C-32.75788952 9.38511293 -25.72782436 7.24559173 -18.73046875 4.9921875 C-17.22504517 4.50745972 -17.22504517 4.50745972 -15.68920898 4.01293945 C-13.76424626 3.39047248 -11.84052477 2.76415072 -9.91821289 2.13354492 C-9.05317139 1.85357666 -8.18812988 1.5736084 -7.296875 1.28515625 C-6.53729492 1.03644775 -5.77771484 0.78773926 -4.99511719 0.53149414 C-3 0 -3 0 0 0 Z " fill="#8B61C2" transform="translate(2821,47)"/>
<path d="M0 0 C0.97878868 0.00018253 1.95757736 0.00036507 2.96602631 0.00055313 C35.93642989 0.03388504 68.90169011 1.02203801 101.85944796 1.84813142 C110.9624401 2.07602665 120.0656097 2.29639886 129.16879249 2.51652205 C166.28735759 3.41505163 203.40418752 4.37125029 240.52007675 5.37389565 C259.27559416 5.88028058 278.03116942 6.36582611 296.7890625 6.77734375 C297.72174957 6.79787308 298.65443665 6.8184024 299.61538696 6.83955383 C307.69663146 7.016927 315.77796188 7.19010836 323.859375 7.35961914 C328.45224439 7.45615666 333.04502744 7.55618043 337.63777542 7.65832329 C339.3239824 7.6951379 341.01021824 7.73066089 342.69648361 7.76469612 C345.00395699 7.81128472 347.31129464 7.86234092 349.61865234 7.91430664 C350.90911469 7.9415834 352.19957703 7.96886017 353.52914429 7.9969635 C359.32463367 8.23976522 365.10713744 8.73480384 370.890625 9.1796875 C370.890625 61.3196875 370.890625 113.4596875 370.890625 167.1796875 C344.03297346 167.1796875 317.26959194 167.10115024 290.43481445 166.38204956 C282.19047518 166.16313634 273.94574006 165.95990983 265.70101929 165.75596046 C263.86517837 165.71048131 262.02934254 165.66479669 260.19351196 165.61890221 C248.26504502 165.32096316 236.33678685 165.05841148 224.40625 164.859375 C223.09738831 164.83743576 221.78852661 164.81549652 220.44000244 164.79289246 C214.50207878 164.69557625 208.56410954 164.60522498 202.62597656 164.52172852 C200.55794254 164.48975675 198.48990868 164.45777499 196.421875 164.42578125 C195.09014252 164.41023697 195.09014252 164.41023697 193.73150635 164.39437866 C186.72221774 164.28240893 179.92284429 163.72062745 172.890625 163.1796875 C142.200625 162.5196875 111.510625 161.8596875 79.890625 161.1796875 C79.890625 299.7796875 79.890625 438.3796875 79.890625 581.1796875 C20.160625 581.1796875 -39.569375 581.1796875 -101.109375 581.1796875 C-101.20873262 485.60173298 -101.20873262 485.60173298 -101.23640442 438.36447144 C-101.23681859 437.65926822 -101.23723276 436.954065 -101.23765948 436.22749198 C-101.24663938 420.89944958 -101.25494976 405.57140688 -101.26257099 390.24336375 C-101.26631281 382.72588175 -101.2702025 375.20839984 -101.27416992 367.69091797 C-101.2745622 366.9428606 -101.27495448 366.19480323 -101.27535864 365.42407746 C-101.28812982 341.20197389 -101.31065413 316.97989139 -101.33826666 292.75780057 C-101.36660374 267.85474676 -101.38504044 242.95170459 -101.39111997 218.04863493 C-101.39198436 214.52670502 -101.39296127 211.00477516 -101.39400673 207.48284531 C-101.394209 206.78971738 -101.39441127 206.09658945 -101.39461967 205.38245765 C-101.39815705 194.250314 -101.41205018 183.11820651 -101.4298711 171.98607758 C-101.44758867 160.77920475 -101.45402312 149.57236685 -101.44987913 138.3654771 C-101.44796164 132.29955753 -101.45085804 126.23374356 -101.46699142 120.16784286 C-101.48167952 114.60447385 -101.48226992 109.04128064 -101.47207168 103.47790323 C-101.47081279 101.47490089 -101.47454236 99.47188719 -101.48402455 97.46890689 C-101.609458 69.31493341 -96.3824204 44.46206651 -76.48046875 23.421875 C-65.43279378 12.97481498 -52.58779772 7.22973277 -38.109375 3.1796875 C-36.93375 2.7878125 -35.758125 2.3959375 -34.546875 1.9921875 C-23.36716971 -0.6502883 -11.42413485 -0.01392133 0 0 Z " fill="#8B61C2" transform="translate(3880.109375,201.8203125)"/>
<path d="M0 0 C0.95716919 -0.00095673 1.91433838 -0.00191345 2.9005127 -0.00289917 C4.90714586 -0.00357413 6.91378129 -0.00176808 8.92041016 0.00244141 C11.96131374 0.0077994 15.00206966 0.00247292 18.04296875 -0.00390625 C20.00781282 -0.00324535 21.9726568 -0.00196393 23.9375 0 C25.2770575 -0.00303635 25.2770575 -0.00303635 26.64367676 -0.00613403 C35.16941741 0.02494919 43.66313921 0.47512354 51.96875 2.5078125 C53.05929688 2.77464844 54.14984375 3.04148437 55.2734375 3.31640625 C56.32789062 3.58582031 57.38234375 3.85523438 58.46875 4.1328125 C59.42007813 4.37128906 60.37140625 4.60976563 61.3515625 4.85546875 C91.30137681 12.66289897 117.69466546 29.41592599 133.75585938 56.28613281 C140.31403609 67.72989699 144.7840334 79.12791411 148.09375 91.8828125 C148.30032227 92.66825439 148.50689453 93.45369629 148.71972656 94.26293945 C152.17774689 108.17795703 152.84273659 121.9414784 152.78125 136.1953125 C152.77975952 137.0507666 152.77826904 137.9062207 152.7767334 138.78759766 C152.73516534 152.07696829 152.21831947 165.08629609 149.46875 178.1328125 C149.32421387 178.82084961 149.17967773 179.50888672 149.03076172 180.21777344 C148.06486049 184.60123219 146.844054 188.86188544 145.46875 193.1328125 C145.16179199 194.08631592 145.16179199 194.08631592 144.84863281 195.05908203 C140.15363274 209.31602171 133.31484862 222.72864992 123.46875 234.1328125 C122.54255859 235.29103516 122.54255859 235.29103516 121.59765625 236.47265625 C100.62866574 261.5640948 66.83867613 273.2496252 35.21484375 276.625 C12.57842146 278.58016786 -10.32119736 278.11890991 -32.53125 273.1328125 C-33.35705566 272.95089355 -34.18286133 272.76897461 -35.03369141 272.58154297 C-64.06178759 265.95112051 -90.82042768 249.76095238 -107.41015625 224.625 C-131.5120195 185.68697836 -135.27278551 135.65589803 -124.96386719 91.71435547 C-117.77899425 62.43506755 -100.43844223 35.99862499 -74.53125 20.1328125 C-51.72905096 6.4627134 -26.53746892 -0.06015192 0 0 Z " fill="#FAFAFA" transform="translate(3376.53125,358.8671875)"/>
<path d="M0 0 C1.02195465 0.00149048 2.0439093 0.00298096 3.09683228 0.0045166 C19.22004839 0.0468186 34.99949214 0.67956288 50.9375 3.3125 C51.79649902 3.44640137 52.65549805 3.58030273 53.54052734 3.71826172 C79.91901167 7.96455432 107.62499884 19.54131202 124.09375 41.453125 C133.52160009 56.07428235 136.75891948 68.63379219 137.9375 86.3125 C50.4875 86.3125 -36.9625 86.3125 -127.0625 86.3125 C-127.0625 67.36955086 -120.9200466 49.49708696 -108.0625 35.3125 C-107.52109375 34.70277344 -106.9796875 34.09304688 -106.421875 33.46484375 C-88.49136255 14.40320085 -61.50522549 6.10343474 -36.33178711 2.66088867 C-34.75992972 2.41957178 -33.19504278 2.12978084 -31.63891602 1.80200195 C-21.1756622 -0.29963577 -10.62527465 -0.03798514 0 0 Z " fill="#F3F3F3" transform="translate(1419.0625,346.6875)"/>
<path d="M0 0 C1.26465252 23.18529612 -8.32525603 45.84433435 -23.3125 63.125 C-45.01228722 86.26897101 -73.26257667 99.32612521 -104 106 C-105.13050781 106.26425781 -106.26101563 106.52851562 -107.42578125 106.80078125 C-138.72049979 113.4701475 -179.77948704 118.88269536 -208.87109375 103.0390625 C-218.47767084 96.77859653 -224.77562453 88.79639392 -227.6015625 77.62109375 C-229.29698837 66.46785104 -228.60886864 55.92363675 -222.2578125 46.3828125 C-204.39795901 24.2096359 -168.29046245 22.37161077 -142.3359375 19.08203125 C-133.26749506 17.93223017 -124.22915613 16.59194388 -115.1875 15.25 C-95.68784481 12.3649407 -76.16962291 9.61798915 -56.6472168 6.89160156 C-55.50613968 6.73212036 -54.36506256 6.57263916 -53.18940735 6.4083252 C-50.91532989 6.09077616 -48.64115056 5.77395579 -46.36686707 5.45788574 C-40.34836684 4.61907489 -34.33390222 3.75823472 -28.32275391 2.86816406 C-27.05913528 2.6826297 -25.79551666 2.49709534 -24.49360657 2.30593872 C-22.07833428 1.95044804 -19.66372208 1.59043171 -17.24992371 1.22506714 C-11.42939521 0.37174912 -5.88287636 -0.20185241 0 0 Z " fill="#F3F3F4" transform="translate(4683,524)"/>
</svg>
